<svg version="1.0" xmlns="http://www.w3.org/2000/svg" width="10666.667" height="10666.667" viewBox="0 0 8000 8000"><path d="M2326 1647.6c-184.9 5.3-348.2 32.9-508 85.7-69.7 23.1-156.9 58.6-175.6 71.5-17.1 11.8-29 28.9-34.5 49.7-3 11.4-3.1 30.7-.1 42.7 5.5 22.4 20.1 42.5 38.8 53.6 8.3 4.9 9.5 5.4 43.9 17.8 105.8 37.9 219 89.3 318.5 144.7 145.9 81.2 275.3 174.5 399 287.6 39.4 36.1 93.2 90.5 133 134.6 160.1 177.4 287.2 386.6 369.5 608 44.8 120.6 75.3 237.4 97.7 374.7 2.9 18.1 5.5 32.8 5.8 32.8.3 0 5.9-11.6 12.5-25.8 149.4-321.5 341.9-629.8 580.4-929.2 95.4-119.8 187.1-221.1 286.9-317.1l17.2-16.6-5.7-5c-62.2-53.8-150.8-122-227.3-175-85.3-59-191.5-123.3-277.5-167.8-8.2-4.3-21.3-11-29-15-28.5-14.8-88.5-43.2-127.3-60.1-261.7-114.4-528.5-178.2-795.9-190.4-23.4-1-102.7-2-122.3-1.4zm3252.2.4c-349.8 11.2-707 114-1038.2 298.8-297.7 166.1-561.1 386.7-788.1 660.2-219.8 264.6-413.9 559.7-561.3 853-259.6 516.6-382.1 1032.2-355.1 1494.5 19.9 339.6 121.4 638 297 873 20 26.8 41.4 53.3 52 64.3 34.7 36.3 80.1 59.8 131.5 67.9 16 2.5 50.1 2.5 65.5-.1 19-3.1 36.1-8.1 65.5-19.1 173.5-65.1 337.1-142.1 483-227.3 244.9-143.2 448.3-315.3 607.1-513.7 126.4-158 221.2-327.9 284.9-511 42.5-122.1 70.8-251.9 91.9-422.5 9.8-78.6 15.2-134.9 28.6-296 19.9-238.5 29.2-325.8 46.6-435.5 33.8-213.5 89-390.4 177.4-569 182.4-368.1 483.5-672.4 865.5-874.6 26.5-14 88.7-44.5 115-56.4 57.6-26 110.2-47.3 173.3-70 30.4-11 37.2-14.8 49.7-27.5 9.8-10 15.5-19.2 19.9-32.5 10.7-32.6 2.4-67.7-21.5-90.6-11.5-10.9-15.6-13.3-47.9-27.4-173.6-75.9-363.1-121.4-562.5-134.9-53.9-3.7-129.4-5.2-179.8-3.6z"/><path d="M1349.5 2045.6c-43.6 4.3-74.1 14.4-106 34.9-19.2 12.4-34.6 26.5-68.4 62.5-193.4 205.9-329.8 467.6-398 764-57.7 250.8-65.3 526.8-22 805 33.4 214.9 99.7 437.5 192.2 645 10.3 23.2 12 26.9 23.9 52.5 42.7 91.6 99.2 195.3 156.4 287.2 80.9 129.7 166.3 245.2 278.3 376.3 14.7 17.2 51.4 59.3 53.1 61 .3.3 5.9 6.6 12.5 14 83.6 94.3 194.6 207.3 293 298.1 341.2 314.9 724.6 563.7 1106.8 718.4 240.7 97.4 477.4 157.8 703.2 179.5 11.6 1.1 21.5 2 22 2 .6 0-4.8-2.7-12-5.9-20.9-9.4-45.4-21-53.5-25.4-25.3-13.7-48.2-33-65.3-54.9-22.4-28.8-36.6-63.1-41.3-100.1-3.4-26.7-.5-61.6 7.1-86.7.4-1.3-2.2-1-15.6 1.7-39.2 7.8-86.9 8.5-126.2 1.8-76.7-13.2-149.4-53.7-200.1-111.5-12.1-13.7-32.7-39.5-49.3-61.5-148.7-197.5-248.6-434.4-296.2-702.6-50.1-282.3-40.7-596.1 27.5-921.1 27-129.1 66-269.4 109.3-394.1l7.9-22.7-3.4-36.8c-21.8-237.3-47.3-386.1-90.5-528.2-60.6-199.2-158.5-388.1-287.7-555-116.9-150.9-258-283.3-421.7-395.7-192.4-132-416.3-232.1-650.5-290.8-16.2-4-34.5-8-40.6-8.9-11.1-1.6-37.5-2.7-44.9-2z"/><path d="M6619 2046c-15.3 1.4-26.7 3.7-57.5 11.5-412 104.9-770.6 326.4-1027.4 634.5-192.8 231.3-317.8 495.6-374.6 792.5-23.3 121.6-36.6 235.6-58 496.5-12.1 147.7-19 219.3-28.6 298-25.1 206.8-61.7 363.9-120.1 516-112.2 292.1-300.1 555.4-555.8 779.3-211.2 184.9-470.6 341.7-774 467.9-35.3 14.7-39.2 16.6-48 23.4-36.6 28.2-43.5 83.1-15.2 120.5 9.5 12.4 19.9 20 41.9 30.5 157.3 74.8 330.1 118.6 520.3 131.9 78 5.4 165 5.4 247-.1 270.9-18 562.4-94.6 854.5-224.4s583.1-313.7 854.5-539.9c196.4-163.7 381.3-349.2 551-552.6 153.2-183.7 273.9-367.3 373.9-569 156.4-315.1 247.3-648.5 266.1-976 4.8-83.9 4.6-179.7-.6-261.5-12.9-205.8-55.2-398.7-127.1-579.4-72.8-183.2-173-345-300.7-485.6-21.3-23.4-56.7-59-65.9-66.3-31.1-24.5-67.8-40.4-106.7-46.1-13.3-1.9-36.7-2.7-49-1.6z"/></svg>